<svg xmlns="http://www.w3.org/2000/svg" viewBox="0 0 129.44 42.34"><g id="Capa_2" data-name="Capa 2"><g id="Capa_1-2" data-name="Capa 1"><g id="Capa_2-2" data-name="Capa 2"><g id="_01_Hero" data-name=" 01 Hero"><path d="M129.44,36.62a5.7,5.7,0,0,1-5.68,5.72H5.73A5.72,5.72,0,0,1,0,36.63H0V5.72A5.72,5.72,0,0,1,5.72,0h118a5.7,5.7,0,0,1,5.71,5.69V36.62Z" style="fill:#1d1d1b"></path><path d="M22.36,7.24H11.82A2.3,2.3,0,0,0,9.53,9.53h0V32.89a2.28,2.28,0,0,0,2.27,2.29H22.36a2.3,2.3,0,0,0,2.29-2.29h0V9.53a2.31,2.31,0,0,0-2.29-2.29M17.1,33.5A1.53,1.53,0,1,1,18.61,32V32a1.53,1.53,0,0,1-1.51,1.5m5.75-3.79H11.32V12.48H22.85Z" style="fill:#fff"></path><path d="M33.28,11.41l-.64,1.94h-.82l2.1-6.18h1L37,13.35h-.85l-.66-1.94Zm2-.63L34.69,9c-.13-.41-.22-.77-.3-1.13h0c-.09.36-.19.74-.31,1.12l-.6,1.78Z" style="fill:#fff"></path><path d="M37.81,8.91l.86,2.48c.15.42.28.79.37,1.15h0c.1-.36.23-.73.38-1.15l.86-2.48h.84l-1.73,4.44h-.78L37,8.91Z" style="fill:#fff"></path><path d="M44.86,12.29a9.37,9.37,0,0,0,0,1.06h-.72l-.07-.56h0a1.63,1.63,0,0,1-1.36.66,1.26,1.26,0,0,1-1.35-1.17v-.11c0-1.06,1-1.65,2.66-1.65v-.09a.91.91,0,0,0-.81-1H43a2.2,2.2,0,0,0-1.17.33l-.18-.54a2.82,2.82,0,0,1,1.47-.39c1.36,0,1.7.93,1.7,1.82Zm-.79-1.2c-.89,0-1.88.13-1.88,1a.7.7,0,0,0,.64.76h.1a1.12,1.12,0,0,0,1.1-.74,1.13,1.13,0,0,0,0-.26Z" style="fill:#fff"></path><path d="M46.48,8.1a.51.51,0,0,1-.64-.36.52.52,0,0,1,.35-.64.48.48,0,0,1,.29,0,.49.49,0,0,1,.51.47v0a.5.5,0,0,1-.48.52h0Zm-.39.82h.81v4.43h-.81Z" style="fill:#fff"></path><rect x="48.19" y="6.85" width="0.81" height="6.5" style="fill:#fff"></rect><path d="M53.41,12.29a9.42,9.42,0,0,0,.06,1.06h-.72l-.07-.56h0a1.63,1.63,0,0,1-1.36.66A1.28,1.28,0,0,1,50,12.26v-.09c0-1.06,1-1.65,2.66-1.65v-.09a.91.91,0,0,0-.81-1h-.19a2.11,2.11,0,0,0-1.15.33l-.19-.54a2.91,2.91,0,0,1,1.47-.39c1.36,0,1.69.93,1.69,1.82Zm-.79-1.2c-.88,0-1.87.13-1.87,1a.7.7,0,0,0,.64.76h.11a1.1,1.1,0,0,0,1.09-.74,1.13,1.13,0,0,0,0-.26Z" style="fill:#fff"></path><path d="M54.65,6.85h.81V9.62h0A1.66,1.66,0,0,1,57,8.81c1.1,0,1.86.92,1.86,2.26A2.1,2.1,0,0,1,57,13.43l-.18,0a1.6,1.6,0,0,1-1.48-.84h0v.74h-.7V12.2Zm.81,4.72a.71.71,0,0,0,0,.29,1.25,1.25,0,0,0,1.21,1c.84,0,1.34-.69,1.34-1.7s-.45-1.67-1.31-1.67a1.28,1.28,0,0,0-1.22,1,1,1,0,0,0,0,.34Z" style="fill:#fff"></path><rect x="59.81" y="6.85" width="0.81" height="6.5" style="fill:#fff"></rect><path d="M62.37,11.27a1.42,1.42,0,0,0,1.29,1.54h.23a2.82,2.82,0,0,0,1.22-.23l.15.57a3.63,3.63,0,0,1-1.49.29,2.07,2.07,0,0,1-2.18-1.95,1.41,1.41,0,0,1,0-.29,2.16,2.16,0,0,1,1.92-2.38h.17a1.85,1.85,0,0,1,1.83,1.89,1.21,1.21,0,0,1,0,.19,2.54,2.54,0,0,1,0,.39Zm2.36-.58a1.15,1.15,0,0,0-1-1.3h-.11a1.34,1.34,0,0,0-1.24,1.31Z" style="fill:#fff"></path><path d="M70.15,13.45A2.11,2.11,0,0,1,68,11.39a1.55,1.55,0,0,1,0-.22,2.17,2.17,0,0,1,2-2.35h.23a2.1,2.1,0,0,1,2.14,2.06,1.62,1.62,0,0,1,0,.22,2.18,2.18,0,0,1-2,2.35h-.19Zm0-.61c.76,0,1.35-.72,1.35-1.73,0-.75-.38-1.69-1.33-1.69s-1.35.88-1.35,1.72.54,1.7,1.32,1.7Z" style="fill:#fff"></path><path d="M73.33,10.11V8.91H74v.73h0a1.64,1.64,0,0,1,1.46-.83c.61,0,1.56.37,1.56,1.89v2.65h-.8V10.79c0-.71-.27-1.32-1-1.32a1.18,1.18,0,0,0-1.08.83,1.15,1.15,0,0,0,0,.37v2.68h-.81Z" style="fill:#fff"></path><path d="M81.24,7.85V8.91h1.15v.62H81.24v2.39c0,.55.15.86.59.86a1.24,1.24,0,0,0,.47-.06v.62a2.51,2.51,0,0,1-.72.11,1.13,1.13,0,0,1-.87-.34,1.75,1.75,0,0,1-.31-1.17V9.53h-.69V8.91h.69V8.1Z" style="fill:#fff"></path><path d="M83.24,6.85h.82V9.61h0A1.45,1.45,0,0,1,84.65,9a1.62,1.62,0,0,1,.83-.23c.59,0,1.54.37,1.54,1.9v2.64h-.8V10.8c0-.72-.27-1.32-1-1.32a1.17,1.17,0,0,0-1.08.8.86.86,0,0,0,0,.39v2.68h-.82Z" style="fill:#fff"></path><path d="M88.74,11.27A1.42,1.42,0,0,0,90,12.81h.22a2.75,2.75,0,0,0,1.23-.23l.14.57a3.51,3.51,0,0,1-1.47.29,2.07,2.07,0,0,1-2.15-2,1,1,0,0,1,0-.24,2.16,2.16,0,0,1,1.92-2.38h.17a1.87,1.87,0,0,1,1.83,1.91,1,1,0,0,1,0,.17,2.54,2.54,0,0,1,0,.39Zm2.35-.58a1.15,1.15,0,0,0-1-1.3H90a1.33,1.33,0,0,0-1.23,1.31Z" style="fill:#fff"></path><path d="M95.11,8.1a.5.5,0,0,1-.51-.49v0a.52.52,0,0,1,1,0,.51.51,0,0,1-.5.52h0Zm-.39.82h.8v4.43h-.8Z" style="fill:#fff"></path><path d="M96.85,7.26a8.59,8.59,0,0,1,1.52-.13,2.54,2.54,0,0,1,1.74.51,1.7,1.7,0,0,1,.55,1.29,1.79,1.79,0,0,1-.5,1.32,3,3,0,0,1-2.52.62v2.48h-.79Zm.79,3a2.46,2.46,0,0,0,.66.06c1,0,1.55-.47,1.55-1.3S99.27,7.8,98.39,7.8a3.81,3.81,0,0,0-.75.07Z" style="fill:#fff"></path><path d="M101.59,6.85h.81V9.61h0A1.47,1.47,0,0,1,103,9a1.62,1.62,0,0,1,.83-.23c.6,0,1.55.37,1.55,1.9v2.64h-.81V10.8c0-.72-.27-1.32-1-1.32a1.17,1.17,0,0,0-1.08.8.86.86,0,0,0-.06.39v2.68h-.81Z" style="fill:#fff"></path><path d="M108.44,13.45a2.12,2.12,0,0,1-2.14-2.1c0-.06,0-.12,0-.18a2.17,2.17,0,0,1,2-2.35h.23a2.1,2.1,0,0,1,2.14,2,1.93,1.93,0,0,1,0,.24,2.17,2.17,0,0,1-2,2.35Zm0-.61c.76,0,1.34-.72,1.34-1.73,0-.75-.37-1.69-1.33-1.69s-1.36.88-1.36,1.72.55,1.7,1.33,1.7Z" style="fill:#fff"></path><path d="M111.61,10.11V8.91h.71v.73h0a1.67,1.67,0,0,1,1.47-.83c.61,0,1.56.37,1.56,1.89v2.65h-.81V10.79c0-.71-.26-1.32-1-1.32a1.18,1.18,0,0,0-1.09.83,1.15,1.15,0,0,0,0,.37v2.68h-.81Z" style="fill:#fff"></path><path d="M117.11,11.27a1.41,1.41,0,0,0,1.27,1.54h.24a2.82,2.82,0,0,0,1.22-.23l.15.57a3.59,3.59,0,0,1-1.48.29,2.07,2.07,0,0,1-2.18-1.95,1.41,1.41,0,0,1,0-.29,2.16,2.16,0,0,1,1.92-2.38h.16a1.85,1.85,0,0,1,1.83,1.89,1.21,1.21,0,0,1,0,.19,2.54,2.54,0,0,1,0,.39Zm2.35-.58a1.15,1.15,0,0,0-1-1.3h-.11a1.34,1.34,0,0,0-1.24,1.31Z" style="fill:#fff"></path><path d="M37.08,17.53l-5.43,16h2.49l1.61-4.91H41l1.67,4.91h2.55l-5.44-16Zm1.29,2.63c.18.71.38,1.45.63,2.25l1.46,4.23H36.3l1.45-4.26c.21-.69.42-1.44.62-2.22" style="fill:#fff"></path><path d="M52.26,21.67a4.57,4.57,0,0,0-3.85,1.84l-.09-1.59H46.11v.21c.07,1,.1,2.08.1,3.64V38.09h2.4V32.34a4.28,4.28,0,0,0,3.32,1.42,5,5,0,0,0,3.65-1.55,6.57,6.57,0,0,0,1.63-4.66A6.47,6.47,0,0,0,55.8,23.3a4.61,4.61,0,0,0-3.55-1.63m-.6,2c2.16,0,3.11,2,3.11,4,0,2.56-1.23,4.14-3.21,4.14a2.92,2.92,0,0,1-2.84-2.24,3.47,3.47,0,0,1-.1-.78v-2c0-.17.06-.38.08-.59a.46.46,0,0,0,0-.2,3,3,0,0,1,2.91-2.35" style="fill:#fff"></path><path d="M64.71,21.67a4.54,4.54,0,0,0-3.84,1.84l-.1-1.59H58.56v.21c.06,1,.1,2.08.1,3.64V38.09h2.41V32.34a4.26,4.26,0,0,0,3.31,1.42A5,5,0,0,0,68,32.21a6.64,6.64,0,0,0,1.62-4.66,6.47,6.47,0,0,0-1.41-4.25,4.61,4.61,0,0,0-3.55-1.63m-.6,2c2.15,0,3.12,2,3.12,4,0,2.56-1.23,4.14-3.21,4.14a2.92,2.92,0,0,1-2.86-2.24,4.13,4.13,0,0,1-.08-.78v-2a4.11,4.11,0,0,1,.08-.6V26a3.05,3.05,0,0,1,2.92-2.35" style="fill:#fff"></path><path d="M80.31,24.3c-2.26-.88-3-1.56-3-2.83,0-1.07.84-2.15,2.75-2.15a5.39,5.39,0,0,1,2.83.71l.21.13.68-2-.13-.08a6.94,6.94,0,0,0-3.52-.79c-3.09,0-5.24,1.82-5.24,4.43,0,2.1,1.35,3.57,4.24,4.62,2,.76,2.82,1.55,2.82,2.9,0,1.53-1.18,2.47-3.08,2.47a6.58,6.58,0,0,1-3.48-1l-.21-.13-.65,2.06.13.08a8.19,8.19,0,0,0,4.08,1c4.15,0,5.63-2.53,5.63-4.7s-1.19-3.62-4.08-4.76" style="fill:#fff"></path><path d="M88.74,19.17l-2.37.74v2H84.63v1.94h1.74v5.91a4.6,4.6,0,0,0,.83,3.07,3.12,3.12,0,0,0,2.34.92,5.63,5.63,0,0,0,1.87-.29h.14l-.12-1.93-.23.07a3.82,3.82,0,0,1-1.12.13c-.94,0-1.34-.59-1.34-2V23.86h2.91V21.92H88.74Z" style="fill:#fff"></path><path d="M97.65,21.67c-3.39,0-5.75,2.52-5.75,6.14s2.29,5.95,5.56,5.95h0c2.76,0,5.74-1.93,5.74-6.16a6.13,6.13,0,0,0-1.54-4.28,5.4,5.4,0,0,0-4-1.65m-.07,1.91c2.18,0,3.16,2.12,3.16,4.09,0,2.42-1.35,4.18-3.21,4.18h0c-1.83,0-3.16-1.73-3.16-4.11,0-2.07,1-4.16,3.23-4.16" style="fill:#fff"></path><path d="M110.63,21.78h-.14a2.46,2.46,0,0,0-.6-.07,3.46,3.46,0,0,0-3,1.94L106.82,22h-2.18v.21c.06,1,.09,2,.09,3.48v7.9h2.42v-6.2a7.42,7.42,0,0,1,.06-.94A2.7,2.7,0,0,1,109.73,24c.22,0,.43,0,.65,0h.25Z" style="fill:#fff"></path><path d="M116.07,21.64c-3.21,0-5.47,2.58-5.47,6.26s2.24,5.84,5.71,5.84a9.18,9.18,0,0,0,3.83-.74l.14-.06-.47-1.8-.2.08a7.67,7.67,0,0,1-3,.54,3.36,3.36,0,0,1-3.6-3.1,2.77,2.77,0,0,1,0-.41h7.8V28.1a4.77,4.77,0,0,0,.08-1c0-2.52-1.26-5.47-4.8-5.47m-.16,1.85a2.41,2.41,0,0,1,1.78.67,3.44,3.44,0,0,1,.83,2.25H113c.23-1.39,1.1-2.92,2.91-2.92" style="fill:#fff"></path></g></g></g></g></svg>