<svg xmlns="http://www.w3.org/2000/svg" viewBox="0 0 129.44 42.34"><g id="Capa_2" data-name="Capa 2"><g id="Capa_1-2" data-name="Capa 1"><g id="Capa_2-2" data-name="Capa 2"><g id="_01_Hero" data-name=" 01 Hero"><path d="M129.44,36.62a5.7,5.7,0,0,1-5.68,5.72H5.73A5.72,5.72,0,0,1,0,36.63H0V5.72A5.72,5.72,0,0,1,5.72,0h118a5.7,5.7,0,0,1,5.71,5.69V36.62Z" style="fill:#1d1d1b"></path><rect id="rect817" x="5.32" y="4.29" width="33.77" height="33.77" rx="7.27" style="fill:#e14459"></rect><path id="path838" d="M13.55,6.5a1,1,0,1,0,1,1h0A1,1,0,0,0,13.55,6.5Zm17.18,0a1,1,0,1,0,1,1h0A1,1,0,0,0,30.73,6.5Z" style="fill:#c73148"></path><path id="path2" d="M13.51,7.32c-.33,0-.32.5-.32.5A9.55,9.55,0,0,0,22.1,13,9.64,9.64,0,0,0,31,7.8s.07-.65-.63-.43a9.74,9.74,0,0,1-8.31,4.86,9.63,9.63,0,0,1-8.3-4.84A.72.72,0,0,0,13.51,7.32ZM25.65,20.9l-1,3-1-3h-1l1.57,4.42H25l1-2.9,1,2.9h.76l1.56-4.42h-.95l-1,3-1-3Zm-5.42,0-2,4.42h.93l.39-.85V24.4h2.06l.4.92h1l-2-4.39h0Zm14.35,0v4.42h.9V20.9Zm-25.81,0v4.42h.91V23.53h2.06v1.79h.91V20.9h-.91v1.79H9.68V20.9Zm8.11,0v2.54a1,1,0,0,1-.89,1.1h-.11c-.66,0-1-.4-1-1.14V20.91H14v2.53a1.78,1.78,0,0,0,1.57,1.95h.36a1.78,1.78,0,0,0,1.95-1.61,1.28,1.28,0,0,0,0-.39V20.9Zm13.22,0v4.41h3.39v-.8H31v-1.1h1.65v-.8H31V21.7h2.4v-.8ZM20.62,22l.65,1.48v.1H19.93l.05-.1Z" style="fill:#fff"></path><path d="M46.53,16.75V9.06h2.73a4.35,4.35,0,0,1,3.13,1,4,4,0,0,1,1,3,4.32,4.32,0,0,1-1,3A3.63,3.63,0,0,1,49.6,17.2,8.24,8.24,0,0,1,46.53,16.75Zm2.66-6.84H47.63V16a4,4,0,0,0,2,.37,2.41,2.41,0,0,0,2-.9,3.67,3.67,0,0,0,.73-2.41,3.36,3.36,0,0,0-.75-2.4A3.22,3.22,0,0,0,49.19,9.91Z" style="fill:#fff"></path><path d="M60.63,14.08a3.18,3.18,0,0,1-.85,2.31,3.43,3.43,0,0,1-4.55,0,3.18,3.18,0,0,1-.85-2.31,3.15,3.15,0,0,1,.85-2.3,3.48,3.48,0,0,1,4.55,0A3.15,3.15,0,0,1,60.63,14.08Zm-1.08,0a2.5,2.5,0,0,0-.56-1.7,2.05,2.05,0,0,0-2.9-.1l-.1.1a2.49,2.49,0,0,0-.55,1.7A2.56,2.56,0,0,0,56,15.8a2.05,2.05,0,0,0,2.9.1l.1-.1A2.55,2.55,0,0,0,59.55,14.08Z" style="fill:#fff"></path><path d="M64.17,17.09H63l-2.06-6H62.1l1.59,4.74,1.4-4.74h1l1.42,4.76,1.57-4.76h1.08l-2.08,6H67L65.6,12.4Z" style="fill:#fff"></path><path d="M70.85,11.09h1l.1.74a3.17,3.17,0,0,1,1-.66,3,3,0,0,1,1.12-.24,2.49,2.49,0,0,1,1.68.51A2,2,0,0,1,76.34,13v4.14H75.26V13.21a1.28,1.28,0,0,0-1.06-1.46,1.15,1.15,0,0,0-.37,0,2.32,2.32,0,0,0-1,.26,2,2,0,0,0-.77.69v4.4H71V12.32Z" style="fill:#fff"></path><path d="M79.89,16.36l.13.78a2.3,2.3,0,0,1-.78.11A1.63,1.63,0,0,1,78,16.83a1.53,1.53,0,0,1-.4-1.17V8.84h1.08v6.82q0,.78.69.78A.92.92,0,0,0,79.89,16.36Z" style="fill:#fff"></path><path d="M86.7,14.08a3.18,3.18,0,0,1-.85,2.31,3.43,3.43,0,0,1-4.55,0,3.18,3.18,0,0,1-.85-2.31,3.15,3.15,0,0,1,.85-2.3,3.48,3.48,0,0,1,4.55,0A3.15,3.15,0,0,1,86.7,14.08Zm-1.08,0a2.5,2.5,0,0,0-.56-1.7,2.05,2.05,0,0,0-2.9-.1l-.1.1a2.49,2.49,0,0,0-.55,1.7,2.55,2.55,0,0,0,.55,1.72,2.05,2.05,0,0,0,2.9.1.94.94,0,0,0,.1-.1A2.56,2.56,0,0,0,85.62,14.08Z" style="fill:#fff"></path><path d="M92.87,15.9,93,17.09H92l-.09-.74a3.28,3.28,0,0,1-2.2.9A2.66,2.66,0,0,1,88,16.8a1.48,1.48,0,0,1-.58-1.26c0-1.11.74-1.71,2.22-1.83l2.14-.14v-.18a1.66,1.66,0,0,0-.42-1.26A1.9,1.9,0,0,0,90,11.74a4.28,4.28,0,0,0-1.93.42l-.22-.76a5.47,5.47,0,0,1,2.36-.47,2.78,2.78,0,0,1,2,.59,2.48,2.48,0,0,1,.63,1.88Zm-1.07-.39V14.3l-2,.13a2.21,2.21,0,0,0-1,.31.82.82,0,0,0-.31.68.89.89,0,0,0,.36.74,1.55,1.55,0,0,0,.94.28A3,3,0,0,0,91,16.18,1.51,1.51,0,0,0,91.8,15.51Z" style="fill:#fff"></path><path d="M99,11.78V8.84h1v7l.11,1.26h-1L99,16.35A2.66,2.66,0,0,1,98,17a3,3,0,0,1-1.18.25,2.62,2.62,0,0,1-2-.87,3.28,3.28,0,0,1-.79-2.3,3.23,3.23,0,0,1,.79-2.28,2.62,2.62,0,0,1,2-.87,3.13,3.13,0,0,1,1.17.23A2.84,2.84,0,0,1,99,11.78Zm0,3.73V12.67a2,2,0,0,0-.79-.67,2.32,2.32,0,0,0-1-.26,1.87,1.87,0,0,0-1.48.64,2.55,2.55,0,0,0-.55,1.7,2.61,2.61,0,0,0,.55,1.72,1.9,1.9,0,0,0,1.48.64,2.48,2.48,0,0,0,1.11-.26A1.52,1.52,0,0,0,99,15.51Z" style="fill:#fff"></path><path d="M110.23,14.08a3.19,3.19,0,0,1-.85,2.31,3.43,3.43,0,0,1-4.55,0,3.18,3.18,0,0,1-.85-2.31,3.15,3.15,0,0,1,.85-2.3,3.48,3.48,0,0,1,4.55,0A3.15,3.15,0,0,1,110.23,14.08Zm-1.08,0a2.5,2.5,0,0,0-.56-1.7,2.05,2.05,0,0,0-2.9-.1l-.1.1a2.49,2.49,0,0,0-.55,1.7,2.55,2.55,0,0,0,.55,1.72,2.05,2.05,0,0,0,2.9.1.94.94,0,0,0,.1-.1A2.56,2.56,0,0,0,109.15,14.08Z" style="fill:#fff"></path><path d="M111.27,11.09h1l.1.74a3.35,3.35,0,0,1,1-.66,3.13,3.13,0,0,1,1.13-.24,2.49,2.49,0,0,1,1.68.51,2,2,0,0,1,.57,1.51v4.14h-1.08V13.21a1.28,1.28,0,0,0-1.06-1.46,1.15,1.15,0,0,0-.37,0,2.32,2.32,0,0,0-1,.26,2,2,0,0,0-.76.69v4.4h-1.07V12.32Z" style="fill:#fff"></path><path d="M55.29,32.56H53L52.46,31h-4l-.58,1.54H45.72l3.64-9.12h2.3Zm-4.8-6.66-1.33,3.43h2.65Z" style="fill:#fff"></path><path d="M56.2,25.75h2.14l.12.73a3.14,3.14,0,0,1,2.3-.92,2.74,2.74,0,0,1,2.18,1,3.89,3.89,0,0,1,.84,2.6,3.89,3.89,0,0,1-.84,2.6,2.74,2.74,0,0,1-2.18,1,3,3,0,0,1-2.25-.87v3.18H56.34V27Zm2.37,2v2.8a1.82,1.82,0,0,0,1.44.58,1.3,1.3,0,0,0,1.11-.53,2.31,2.31,0,0,0,.41-1.44,2.34,2.34,0,0,0-.41-1.45A1.32,1.32,0,0,0,60,27.18,1.69,1.69,0,0,0,58.57,27.75Z" style="fill:#fff"></path><path d="M65,25.75h2.14l.12.73a3.14,3.14,0,0,1,2.3-.92,2.68,2.68,0,0,1,2.18,1,3.89,3.89,0,0,1,.84,2.6,3.89,3.89,0,0,1-.84,2.6,2.74,2.74,0,0,1-2.18,1,3,3,0,0,1-2.25-.87v3.18H65.14V27Zm2.37,2v2.8a1.82,1.82,0,0,0,1.44.58,1.3,1.3,0,0,0,1.11-.53,2.31,2.31,0,0,0,.41-1.44,2.34,2.34,0,0,0-.41-1.45,1.3,1.3,0,0,0-1.11-.53A1.71,1.71,0,0,0,67.37,27.75Z" style="fill:#fff"></path><path d="M78.1,29.25V27.62h3.8v4.2a7.11,7.11,0,0,1-3.72.92A4.23,4.23,0,0,1,75,31.44,4.8,4.8,0,0,1,73.73,28,4.67,4.67,0,0,1,75,24.57a4.52,4.52,0,0,1,3.41-1.31,7,7,0,0,1,3.44.91l-.6,1.55A4.49,4.49,0,0,0,78.76,25a2.56,2.56,0,0,0-2,.83,3.6,3.6,0,0,0,0,4.37,2.46,2.46,0,0,0,1.94.82,3,3,0,0,0,1.07-.18v-1.6Z" style="fill:#fff"></path><path d="M89.83,31.37,90,32.56H87.81l-.1-.73a3.09,3.09,0,0,1-2.26.91,2.57,2.57,0,0,1-1.71-.52,1.77,1.77,0,0,1-.63-1.43c0-1.18.85-1.88,2.54-2.07l1.94-.18V28.4c0-.82-.53-1.22-1.59-1.22a4.08,4.08,0,0,0-2,.46l-.43-1.5a7,7,0,0,1,2.86-.58c2.23,0,3.34,1,3.35,2.88Zm-2.24-.79v-1l-1.27.12c-.65.09-1,.34-1,.78a.65.65,0,0,0,.24.54.9.9,0,0,0,.63.22A1.52,1.52,0,0,0,87.59,30.58Z" style="fill:#fff"></path><path d="M95.05,31l.21,1.57a3.31,3.31,0,0,1-1.21.16,2.74,2.74,0,0,1-2-.61,2.27,2.27,0,0,1-.64-1.77V23.19h2.24v7.17c0,.51.23.77.7.77A1.22,1.22,0,0,0,95.05,31Z" style="fill:#fff"></path><path d="M100,31l.21,1.57a3.31,3.31,0,0,1-1.21.16,2.83,2.83,0,0,1-2-.61,2.24,2.24,0,0,1-.63-1.77V23.19H98.6v7.17c0,.51.23.77.7.77A1.22,1.22,0,0,0,100,31Z" style="fill:#fff"></path><path d="M106.84,30.66l.46,1.5a6.16,6.16,0,0,1-2.53.58,4,4,0,0,1-2.81-1,3.44,3.44,0,0,1-1-2.61,3.59,3.59,0,0,1,1-2.6,3.43,3.43,0,0,1,2.57-1,3,3,0,0,1,2.33.94,3.5,3.5,0,0,1,.88,2.49v.58h-4.45a1.76,1.76,0,0,0,.6,1.14,1.85,1.85,0,0,0,1.26.42A3.83,3.83,0,0,0,106.84,30.66Zm-3.66-2.14h2.3a1.82,1.82,0,0,0-.36-1,.91.91,0,0,0-.75-.34,1,1,0,0,0-.82.35A1.77,1.77,0,0,0,103.18,28.52Z" style="fill:#fff"></path><path d="M108.89,25.75h2.16l.11.79a2.55,2.55,0,0,1,1.06-.71,4,4,0,0,1,1.49-.27v1.62a4.25,4.25,0,0,0-1.46.23,2.26,2.26,0,0,0-1,.61v4.54H109V27Z" style="fill:#fff"></path><path d="M117.91,30.22l1.61-4.47h2.25l-2.72,6.85a5.29,5.29,0,0,1-1.22,2,2.46,2.46,0,0,1-1.7.59,4.53,4.53,0,0,1-2.11-.45l.64-1.57a1.91,1.91,0,0,0,1.14.41.91.91,0,0,0,.61-.21,2.34,2.34,0,0,0,.47-.73l.1-.22h-.27l-2.54-6.72h2.3Z" style="fill:#fff"></path></g></g></g></g></svg>