<svg xmlns="http://www.w3.org/2000/svg" xmlns:xlink="http://www.w3.org/1999/xlink" viewBox="0 0 129.45 42.34"><defs><clipPath id="clip-path"><path d="M9.71,9.38V35.87a.59.59,0,0,0,.36.6l14.1-14L10.17,8.6a.72.72,0,0,0-.48.76" style="fill:none"></path></clipPath><linearGradient id="Degradado_sin_nombre" x1="-1086.65" y1="-552.5" x2="-1084.54" y2="-552.5" gradientTransform="translate(-7480.47 14754.19) rotate(90) scale(13.57)" gradientUnits="userSpaceOnUse"><stop offset="0" stop-color="#207aaf"></stop><stop offset="0.32" stop-color="#4997b4"></stop><stop offset="0.78" stop-color="#80bfba"></stop><stop offset="1" stop-color="#96cebd"></stop></linearGradient><clipPath id="clip-path-2"><path d="M10.19,8.62l14,13.87,3.88-3.86-5.83-3.36-.12-.07h0l-.3-.18h-.23L10.93,8.75a1.29,1.29,0,0,0-.54-.15h-.2" style="fill:none"></path></clipPath><linearGradient id="Degradado_sin_nombre_2" x1="-1096.14" y1="-310.31" x2="-1094.03" y2="-310.31" gradientTransform="translate(9524.67 2709.05) scale(8.68)" gradientUnits="userSpaceOnUse"><stop offset="0" stop-color="#59baa9"></stop><stop offset="1" stop-color="#e5e799"></stop></linearGradient><clipPath id="clip-path-3"><path d="M10.07,36.47a.81.81,0,0,0,.61-.1l1.57-.9,9.62-5.56h0l.17-.09h.12L28,26.45,24.11,22.6Z" style="fill:none"></path></clipPath><linearGradient id="Degradado_sin_nombre_3" x1="-974.76" y1="-618.55" x2="-972.64" y2="-618.55" gradientTransform="translate(-4205.6 6680.79) rotate(90) scale(6.83)" gradientUnits="userSpaceOnUse"><stop offset="0" stop-color="#e33332"></stop><stop offset="0.16" stop-color="#d43542"></stop><stop offset="0.72" stop-color="#a13e79"></stop><stop offset="1" stop-color="#8d418f"></stop></linearGradient><clipPath id="clip-path-4"><path d="M24.17,22.49l3.88,3.85,5-2.88c.3-.16.53-.3.63-.36.66-.38.6-.9,0-1.2S28,18.63,28,18.63Z" style="fill:none"></path></clipPath><linearGradient id="Degradado_sin_nombre_4" x1="-779.41" y1="-732.29" x2="-777.3" y2="-732.29" gradientTransform="translate(-2643.6 2863.37) rotate(90) scale(3.65)" gradientUnits="userSpaceOnUse"><stop offset="0" stop-color="#ef8679"></stop><stop offset="0.63" stop-color="#f7b374"></stop><stop offset="1" stop-color="#fbc972"></stop></linearGradient></defs><g id="Capa_2" data-name="Capa 2"><g id="Capa_1-2" data-name="Capa 1"><g id="Capa_2-2" data-name="Capa 2"><g id="_01_Hero" data-name=" 01 Hero"><rect width="129.45" height="42.34" rx="5.72" style="fill:#1d1d1b"></rect><g style="clip-path:url(#clip-path)"><rect x="9.71" y="8.62" width="14.46" height="27.85" style="fill:url(#Degradado_sin_nombre)"></rect></g><g style="clip-path:url(#clip-path-2)"><rect x="10.19" y="8.6" width="17.86" height="13.89" style="fill:url(#Degradado_sin_nombre_2)"></rect></g><g style="clip-path:url(#clip-path-3)"><rect x="10.07" y="22.49" width="17.99" height="14.03" style="fill:url(#Degradado_sin_nombre_3)"></rect></g><g style="clip-path:url(#clip-path-4)"><rect x="24.17" y="18.63" width="10.16" height="7.7" style="fill:url(#Degradado_sin_nombre_4)"></rect></g><path d="M100.75,28.09a3.89,3.89,0,0,1-1.5-.29,2.82,2.82,0,0,1-1.12-.93H98a10.81,10.81,0,0,1,.09,1.39v3.42H96.86V19.6h1L98,20.74h.07a2.8,2.8,0,0,1,1.13-1,3.35,3.35,0,0,1,1.49-.31,3.12,3.12,0,0,1,2.56,1.13,5.09,5.09,0,0,1,.89,3.19,5,5,0,0,1-.9,3.19,3.13,3.13,0,0,1-2.55,1.13m-.19-7.57a2.26,2.26,0,0,0-1.85.71,3.66,3.66,0,0,0-.58,2.25v.29a4.16,4.16,0,0,0,.58,2.51,2.25,2.25,0,0,0,1.89.76,1.92,1.92,0,0,0,1.68-.88,4,4,0,0,0,.61-2.41,4,4,0,0,0-.61-2.4,2,2,0,0,0-1.72-.83" style="fill:#f9f9f9"></path><rect x="105.87" y="16.1" width="1.26" height="11.84" style="fill:#f9f9f9"></rect><path d="M114.39,27.94l-.25-1.19h-.06a3.68,3.68,0,0,1-1.25,1.07,3.85,3.85,0,0,1-1.54.27,2.84,2.84,0,0,1-2-.63,2.34,2.34,0,0,1-.7-1.82c0-1.68,1.35-2.57,4-2.65H114v-.51a2.18,2.18,0,0,0-.42-1.46,1.78,1.78,0,0,0-1.35-.46,5.45,5.45,0,0,0-2.37.64l-.38-1a6.23,6.23,0,0,1,2.82-.72,3.21,3.21,0,0,1,2.21.67,2.75,2.75,0,0,1,.72,2.12V28Zm-2.85-.89a2.51,2.51,0,0,0,1.85-.65,2.38,2.38,0,0,0,.67-1.81v-.75l-1.26.05a4.57,4.57,0,0,0-2.18.48,1.4,1.4,0,0,0-.66,1.28,1.31,1.31,0,0,0,.42,1,1.68,1.68,0,0,0,1.16.36" style="fill:#f9f9f9"></path><path d="M116.06,19.6h1.36l1.83,4.76a21.35,21.35,0,0,1,.74,2.35h.06c.06-.26.2-.7.42-1.33s.89-2.55,2.06-5.78h1.36l-3.59,9.49a4.79,4.79,0,0,1-1.24,2,2.71,2.71,0,0,1-1.75.58,5.45,5.45,0,0,1-1.14-.12v-1a4.91,4.91,0,0,0,.94.09A2,2,0,0,0,119,29.17l.46-1.18Z" style="fill:#f9f9f9"></path><path d="M77.35,20.38a2.85,2.85,0,0,1,.72,4,2.9,2.9,0,0,1-.95.86,1.19,1.19,0,0,0-.49.86,1,1,0,0,0,.45.74l.64.49a3.06,3.06,0,0,1,1.46,2.45c0,1.63-1.59,3.29-4.59,3.29-2.53,0-3.75-1.2-3.75-2.49a2.5,2.5,0,0,1,1.34-2.13,7.39,7.39,0,0,1,3.33-.8A1.84,1.84,0,0,1,75,26.43a1.75,1.75,0,0,1,.17-.68,5.23,5.23,0,0,1-.56,0,2.77,2.77,0,0,1-2.89-2.65V23a3.14,3.14,0,0,1,1.12-2.34,4.72,4.72,0,0,1,3.13-1h3.58l-1.12.63Zm-1.24,7.74a2.81,2.81,0,0,0-.41,0,7,7,0,0,0-1.82.28,2,2,0,0,0-1.5,1.8c0,1.24,1.2,2.13,3.07,2.13,1.67,0,2.56-.81,2.56-1.89,0-.89-.57-1.36-1.9-2.3m.51-3.31a1.75,1.75,0,0,0,.43-1.28c0-1.25-.75-3.21-2.19-3.21a1.62,1.62,0,0,0-1.23.58,2.05,2.05,0,0,0-.39,1.29c0,1.17.69,3.11,2.19,3.11a1.82,1.82,0,0,0,1.19-.49" style="fill:#f9f9f9"></path><path d="M66.36,27.84a4.11,4.11,0,0,1-4.25-4v-.14a4.31,4.31,0,0,1,4.4-4.23h.12a4.07,4.07,0,0,1,4.16,4v.13a4.25,4.25,0,0,1-4.29,4.23h-.14m2.18-1.41a3.16,3.16,0,0,0,.53-1.93c0-1.53-.74-4.46-2.9-4.46a2.47,2.47,0,0,0-1.56.59,2.65,2.65,0,0,0-.8,2.13c0,1.72.85,4.56,3,4.56a2.19,2.19,0,0,0,1.77-.89" style="fill:#f9f9f9"></path><path d="M56.93,27.84a4.11,4.11,0,0,1-4.25-4v-.14a4.3,4.3,0,0,1,4.38-4.23h.13a4.07,4.07,0,0,1,4.16,4v.13a4.25,4.25,0,0,1-4.27,4.23h-.15m2.18-1.41a3.21,3.21,0,0,0,.51-1.93c0-1.5-.72-4.5-2.88-4.5a2.53,2.53,0,0,0-1.58.59,2.7,2.7,0,0,0-.8,2.13c0,1.72.86,4.56,3,4.56a2.23,2.23,0,0,0,1.78-.89" style="fill:#f9f9f9"></path><path d="M51.35,27.57l-2.51.58a19.8,19.8,0,0,1-2.88.3c-4.84,0-6.68-3.56-6.68-6.35,0-3.39,2.62-6.54,7.08-6.54a10.06,10.06,0,0,1,2.67.37A6.91,6.91,0,0,1,51.35,17L49.9,18.4l-.62.13.44-.69A5,5,0,0,0,46,16.19,4.84,4.84,0,0,0,41.14,21c0,.11,0,.23,0,.34a6.19,6.19,0,0,0,6,6.39h.21a5.3,5.3,0,0,0,2.22-.43V24.49l-2.64.14,1.4-.76H52l-.45.44a.39.39,0,0,0-.18.28v.84Z" style="fill:#f9f9f9"></path><path d="M82.88,27.06c-.57,0-.7-.15-.7-.84V16.31a.21.21,0,0,1,0-.11c.06-.61.24-.71.78-1H80.47l-1.31.63H80.5V26.61c0,.35-.07.4-.48.93h3.1l.66-.39a3,3,0,0,1-.9-.09" style="fill:#f9f9f9"></path><path d="M90,27.23c-.18.1-.38.23-.56.31a4.08,4.08,0,0,1-1.69.33,3.7,3.7,0,0,1-2.32-.68,4.5,4.5,0,0,1-1.77-3.67,3.94,3.94,0,0,1,3.88-4h.12a3.36,3.36,0,0,1,1.8.49,2.76,2.76,0,0,1,1.2,1.71l-4.08,1.66-1.34.1c.44,2.21,1.94,3.49,3.59,3.49a4.51,4.51,0,0,0,2.12-.6Zm-1.63-5.18c.33-.13.51-.23.51-.47a1.72,1.72,0,0,0-1.72-1.5,2.14,2.14,0,0,0-2,2.28.66.66,0,0,0,0,.14v.92Z" style="fill:#f9f9f9"></path><polygon points="91.68 19.62 91.68 20.77 91.55 20.77 91.55 19.62 91.17 19.62 91.17 19.51 92.06 19.51 92.06 19.62 91.68 19.62" style="fill:#f9f9f9"></polygon><polygon points="93.25 20.77 93.25 19.62 93.24 19.62 92.89 20.77 92.78 20.77 92.43 19.62 92.42 19.62 92.42 20.77 92.29 20.77 92.29 19.51 92.51 19.51 92.83 20.53 92.83 20.53 93.15 19.51 93.37 19.51 93.37 20.77 93.25 20.77" style="fill:#f9f9f9"></polygon><path d="M42.76,12.15H41.9a7,7,0,0,0-.26-1H40.39a4.88,4.88,0,0,0-.25,1h-.83c0-.07.22-.65.64-1.74a14.84,14.84,0,0,0,.64-1.8h1a14,14,0,0,0,.57,1.77,15.91,15.91,0,0,1,.58,1.77m-1.25-1.53c-.19-.5-.35-1-.49-1.52h0c-.13.51-.29,1-.47,1.52Z" style="fill:#fbfbfb"></path><path d="M46.27,12.15h-.68A6.63,6.63,0,0,0,44.85,11,6.22,6.22,0,0,1,44,9.44h0a7.67,7.67,0,0,1,0,1.07v1.64h-.67V8.61h.8a5.09,5.09,0,0,0,.67,1.15,6.33,6.33,0,0,1,.83,1.45h0c0-.4-.07-.77-.07-1.09V8.61h.68v3.54" style="fill:#fbfbfb"></path><path d="M50.2,10.26a2,2,0,0,1-.49,1.35,1.73,1.73,0,0,1-1.38.57H47.22V8.64h1.12a1.83,1.83,0,0,1,1.43.5,1.68,1.68,0,0,1,.43,1.17m-.74.11a1.34,1.34,0,0,0-.3-.88,1.15,1.15,0,0,0-.93-.35h-.32v2.43a1.93,1.93,0,0,0,.34,0,1.06,1.06,0,0,0,.88-.36,1.42,1.42,0,0,0,.27-.89" style="fill:#fbfbfb"></path><path d="M53.84,12.15H53A4.74,4.74,0,0,0,52.55,11a.61.61,0,0,0-.54-.22H51.7v1.41H51V8.65h1.29c.83,0,1.24.29,1.24.86a1,1,0,0,1-.71.94h0a.86.86,0,0,1,.49.43,12.19,12.19,0,0,1,.55,1.29m-1-2.5q0-.54-.69-.54a1.69,1.69,0,0,0-.45,0v1.09H52c.57,0,.86-.2.86-.6" style="fill:#fbfbfb"></path><path d="M57.73,10.31a1.94,1.94,0,0,1-.51,1.39,1.64,1.64,0,0,1-1.26.55,1.61,1.61,0,0,1-1.2-.51,1.73,1.73,0,0,1-.49-1.28,2,2,0,0,1,.52-1.38,1.64,1.64,0,0,1,1.26-.55,1.6,1.6,0,0,1,1.2.5,1.84,1.84,0,0,1,.48,1.28m-.75.08a1.52,1.52,0,0,0-.28-.92.92.92,0,0,0-.7-.35.87.87,0,0,0-.68.35,1.45,1.45,0,0,0-.27.9,1.34,1.34,0,0,0,.29.92.9.9,0,0,0,.72.36.82.82,0,0,0,.67-.36,1.39,1.39,0,0,0,.27-.9" style="fill:#fbfbfb"></path><path d="M59.27,12.15h-.76V8.61h.76v3.54" style="fill:#fbfbfb"></path><path d="M63.22,10.26a2,2,0,0,1-.5,1.35,1.73,1.73,0,0,1-1.39.57h-1.1V8.64h1.12a1.83,1.83,0,0,1,1.42.5,1.7,1.7,0,0,1,.45,1.17m-.75.11a1.34,1.34,0,0,0-.3-.88,1.15,1.15,0,0,0-.93-.35h-.32v2.43a2,2,0,0,0,.35,0,1,1,0,0,0,.86-.36,1.43,1.43,0,0,0,.28-.89" style="fill:#fbfbfb"></path><path d="M68.45,12.15h-.87a7,7,0,0,0-.25-1H66.07a4.9,4.9,0,0,0-.26,1H65q0-.11.63-1.74a12.84,12.84,0,0,0,.64-1.8h1a15.91,15.91,0,0,0,.58,1.77,15.91,15.91,0,0,1,.58,1.77m-1.26-1.53c-.31-.94-.47-1.45-.47-1.52h0c0,.07-.16.57-.48,1.52Z" style="fill:#fbfbfb"></path><path d="M71.61,9.54a1.07,1.07,0,0,1-.48,1,2.24,2.24,0,0,1-1.18.31h-.19v1.34H69V8.65h1.36a1.49,1.49,0,0,1,.87.24.81.81,0,0,1,.35.71m-.7.15c0-.39-.25-.58-.77-.58H69.7v1.16h.16c.67,0,1-.2,1-.62" style="fill:#fbfbfb"></path><path d="M74.87,9.54a1.07,1.07,0,0,1-.48,1,2.24,2.24,0,0,1-1.18.31H73v1.34h-.76V8.65H73.6a1.49,1.49,0,0,1,.87.24.78.78,0,0,1,.35.71m-.7.15c0-.39-.25-.58-.77-.58h-.41v1.16h.16c.67,0,1-.2,1-.62" style="fill:#fbfbfb"></path><path d="M80.21,10.31a2,2,0,0,1-.52,1.39,1.64,1.64,0,0,1-1.26.55,1.61,1.61,0,0,1-1.2-.51,1.8,1.8,0,0,1-.48-1.28,2,2,0,0,1,.5-1.38,1.66,1.66,0,0,1,1.27-.55,1.6,1.6,0,0,1,1.2.5,1.73,1.73,0,0,1,.49,1.28m-.76.08a1.52,1.52,0,0,0-.28-.92,1,1,0,0,0-.73-.35.81.81,0,0,0-.67.35,1.45,1.45,0,0,0-.27.9,1.34,1.34,0,0,0,.29.92.88.88,0,0,0,.71.36.85.85,0,0,0,.68-.36,1.45,1.45,0,0,0,.27-.9" style="fill:#fbfbfb"></path><path d="M83.89,12.15h-.67A6.68,6.68,0,0,0,82.47,11a6.87,6.87,0,0,1-.89-1.53h0c0,.39.07.75.07,1.07v1.64H81V8.64h.8a5.09,5.09,0,0,0,.67,1.15,6.29,6.29,0,0,1,.82,1.45h0a8,8,0,0,1-.07-1.09V8.64h.68v3.54" style="fill:#fbfbfb"></path></g></g></g></g></svg>